<svg id="Warstwa_1" data-name="Warstwa 1" xmlns="http://www.w3.org/2000/svg" viewBox="0 0 21.79 525"><defs><style>.cls-1{fill:none;stroke:#ee6950;stroke-linecap:round;stroke-linejoin:round;stroke-width:2px;}</style></defs><title>rightBorderSketchSmaller</title><path class="cls-1" d="M3.62,13.33c0,.15,1.62-3.32,1.64-3.17.07.4-1.64,7.85-1.57,8.3.15.82,6-12.61,6.1-11.76s-3.66,12-3.54,12.71S11,9.21,11.14,10C11.32,11,6,24.24,6.2,25.25c.14.78,3.93-8.58,4.06-7.83S5.75,31.2,5.89,32s4.34-9.33,4.46-8.62c.16.92-4.34,12.49-4.19,13.37S11.85,24.64,12,25.5c.18,1.06-6,15.87-5.82,17,.13.76,6.82-14.19,7-13.41.22,1.28-6.56,17.11-6.33,18.44.13.78,5.38-11.38,5.52-10.66s-3.14,11.25-3,12,4.65-10,4.79-9.24c.21,1.16-6.21,16.37-6,17.62.14.82,6.6-13.83,6.74-13C15.09,45.64,8,62,8.21,63.25c.13.78,5-10.86,5.2-10S8.92,66.7,9.07,67.62c.13.76,4.21-9.13,4.34-8.38.1.55-2,9.34-1.91,9.88.14.8,4.46-9.61,4.6-8.86.17,1-5.63,15.24-5.43,16.37s3.82-8.54,4-7.66-5.48,14.36-5.3,15.4S16.63,69,16.8,70C17,71.28,8.91,88.87,9.14,90.2c.2,1.14,7-15.11,7.24-14,.26,1.5-7.67,18.9-7.45,20.15s6.06-13,6.24-12c.3,1.67-8.76,20.08-8.46,21.77.2,1.08,8.88-18.71,9.08-17.57.3,1.74-9.21,21.27-8.92,23,.21,1.19,6.91-14.87,7.11-13.71S7.43,114.4,7.63,115.58c.18,1,4.49-10.27,4.7-9.07.18,1-6,16.19-5.76,17.41s6-13,6.19-11.94c.26,1.45-8.55,19.57-8.27,21.21.19,1.11,7.34-15.71,7.54-14.56s-5.66,15.7-5.47,16.79S10.73,126,10.9,127s-5.32,15-5.16,16c.14.78,5.09-11,5.24-10.1.18,1.07-5.93,15.37-5.76,16.37.15.85,5.93-12.52,6.07-11.72S6.84,151.16,7,152s5.8-12.21,5.94-11.45c.2,1.16-6.59,16.55-6.39,17.74C6.66,159,12.87,145,13,145.82c.21,1.19-6.54,16.78-6.34,17.93.13.78,5.69-12.05,5.82-11.23.11.63-3.15,10.52-3,11.17s3.2-7.21,3.34-6.44S9.19,168.62,9.31,169.4s4.79-10.37,4.94-9.53-4.87,13.45-4.7,14.4c.13.75,2.95-6.79,3.09-6s-3.55,11.27-3.42,12,5.09-10.93,5.23-10.08-3.93,11.88-3.8,12.65,3.69-8.18,3.83-7.38-2.9,10.32-2.78,10.94,3.34-7.58,3.49-6.73-5.18,14.12-5,15.05c.13.72,6.43-13.46,6.57-12.67s-4.56,13.07-4.4,14,2.69-6.36,2.84-5.49-5.92,15.9-5.72,17S16.81,192.08,17,193c.26,1.47-8.52,20.48-8.28,21.86.2,1.18,7.69-16.23,7.87-15.19.26,1.5-7.91,19.59-7.67,21,.18,1,6.75-14.51,6.94-13.39.23,1.3-6.64,16.4-6.42,17.62.17,1,7-15.16,7.24-14,.24,1.42-8.42,19.81-8.15,21.39.19,1.09,5.56-12.19,5.75-11.1S8.6,236.51,8.79,237.6s6.15-13.47,6.36-12.28S7.44,244,7.7,245.49c.2,1.16,7-15,7.2-13.89.27,1.57-8.71,21-8.47,22.46.19,1.09,5.13-11.38,5.32-10.26s-6.21,15.68-6,16.87,5.68-12.43,5.87-11.34-6.62,17-6.39,18.38c.18,1.06,7.51-15.89,7.69-14.83s-6.25,16.22-6,17.41c.15.87,4.33-9.42,4.47-8.62.18,1.06-6.21,15.82-6,16.94.14.82,6.9-14.45,7.05-13.6s-5,14.07-4.84,15.12c.14.76,3.3-7.29,3.41-6.57s-3.93,11.91-3.78,12.69,6.15-12.92,6.28-12.14c.2,1.17-6.79,17.83-6.58,19,.15.85,4.93-10.53,5.06-9.76.1.58-3,10.62-2.89,11.21s4.06-8.87,4.19-8.09S8.4,300.33,8.58,301.36c.14.8,4.49-9.77,4.63-8.92s-4,12.28-3.81,13.11,3.57-7.91,3.7-7.14-4,12.87-3.92,13.59,6.05-12.66,6.18-11.92c.18,1.06-5.2,14-5,14.94.12.71,3.59-7.9,3.71-7.17s-4.16,12.48-4,13.3,4.88-10.45,5-9.68-3.34,11.23-3.23,11.91c.15.84,2.84-6.5,3-5.74.18,1-5.26,15.07-5.08,16s6.58-14.14,6.77-13.05-7,17.94-6.81,19.24,6.52-14,6.7-12.94-7,17.68-6.76,18.92,7-14.92,7.21-13.92c.26,1.47-8.2,19.43-8,20.82.19,1.09,5.69-12.43,5.87-11.31.22,1.31-7,17.31-6.75,18.49s7.2-15.49,7.41-14.29c.24,1.39-8.28,20-8,21.47.19,1.08,6.38-13.77,6.58-12.68.24,1.39-7.3,18-7.07,19.3s5.73-12.52,5.91-11.43-5.64,15-5.46,16.09,4.9-10.88,5.09-9.8-5.95,15.27-5.76,16.38,4.6-10.29,4.79-9.22S5.68,390.83,5.87,392c.17,1,6.72-14.11,6.87-13.25.2,1.17-6.37,17-6.17,18.15.14.79,4.76-10.32,4.91-9.47s-5.45,15-5.29,16,6.37-13.28,6.5-12.54-3.83,12-3.7,12.77,2.4-5.76,2.54-4.9c.1.57-2.86,10-2.75,10.7s4.53-9.79,4.67-9-4.15,12.54-4,13.4,4-8.73,4.1-7.93c.19,1.06-5.38,14.5-5.2,15.61.12.73,4.42-9.55,4.55-8.78s-3.78,12-3.64,12.73,5.86-12.34,6-11.57S10.84,427.21,11,428.07s4.89-10.52,5-9.7c.18,1-5,13.83-4.81,14.72s4.79-10.22,4.91-9.47-4.32,13.05-4.19,13.87,4.23-9.26,4.37-8.44c.19,1.07-5.5,15.32-5.31,16.41.13.76,6.11-12.8,6.23-12s-4.42,13-4.28,13.83,4.59-10,4.74-9.14c.23,1.36-6.93,17.18-6.71,18.45.16.91,7.24-15.35,7.42-14.31.29,1.64-8.29,20.08-8,21.7.17,1,6.94-14.86,7.13-13.76s-7.52,18-7.26,19.45c.19,1.1,5.45-12,5.65-10.9S9.63,475,9.84,476.23,17,460.81,17.24,462c.24,1.39-7.54,19-7.3,20.41.19,1.11,6.14-13.2,6.32-12.19.21,1.25-7.61,18-7.35,19.48.18,1,5.26-11.61,5.45-10.52.22,1.28-7.25,18.5-7,19.88.2,1.18,6-13.12,6.18-11.94S6.8,504.77,7,506s6.85-14.76,7.05-13.61c.26,1.48-7.45,19-7.22,20.27C7,513.72,13.09,499,13.3,500.2c.23,1.37-6.77,17.48-6.54,18.8.14.8,5.33-11.42,5.48-10.56.07.43-1.4,8.15-1.32,8.59s.48-1.34.53-1"/></svg>