<svg id="Warstwa_1" data-name="Warstwa 1" xmlns="http://www.w3.org/2000/svg" viewBox="0 0 22.81 525"><defs><style>.cls-1{fill:none;stroke:#ee6950;stroke-linecap:round;stroke-linejoin:round;stroke-width:2px;}</style></defs><title>leftBorderSketchSmaller</title><path class="cls-1" d="M9.05,7.92c0,.06,1.22-2.23,1.23-2.17C10.37,6.22,7.91,14.49,8,15s4.51-8.59,4.6-8.08-3.16,10.64-3,11.23c.16.89,6-11.84,6.22-10.92C16.05,8.62,8,24.82,8.28,26.16c.21,1.12,6.51-12.87,6.72-11.79.27,1.43-8.62,19.55-8.38,20.85s7-13.61,7.16-12.58c.28,1.47-8.25,17.9-8,19.3.23,1.23,8.43-16.46,8.67-15.22.29,1.56-10.2,21.47-9.87,23.11.21,1.08,9.68-18.5,9.9-17.37C14.85,34.3,3.6,55.27,4,57.18c.2,1.13,8.11-15.65,8.31-14.62S5.17,59.52,5.4,60.8c.21,1.11,7.3-14.36,7.52-13.2.33,1.76-10.49,22.13-10.15,23.91.22,1.17,9.45-18.15,9.67-17,.33,1.78-10.06,21.67-9.75,23.31.18.94,6.65-13,6.84-12s-6.22,15.45-6,16.57c.14.75,4.6-9.07,4.74-8.32.11.56-2.3,9.49-2.2,10.05.15.8,4.93-9.67,5.08-8.91S5.85,89.05,6,90s3.32-6.78,3.46-6-4,11.26-3.9,12S11.85,84,12,84.76,6.29,99,6.47,99.91s6-11.6,6.12-10.74S7.21,103.25,7.37,104.1,12,95,12.15,95.72C12.38,96.87,5.78,110.78,6,112c.15.81,7.75-14.69,7.89-13.88.24,1.23-6.81,16.13-6.57,17.32.16.85,5.59-10.9,5.73-10.08.13.66-3.94,11.48-3.81,12.2s2.92-6.28,3.08-5.42c.11.58-3.13,10.88-3,11.58s4.58-9.06,4.73-8.3c.19,1-6.2,14.62-6,15.75.16.79,6.06-11.74,6.22-10.91.12.67-3.49,11.42-3.35,12.11s3.18-6.68,3.34-5.87c.2,1.06-5.7,14.77-5.52,15.69s6.57-13,6.78-11.91c.26,1.38-8.72,18.85-8.48,20.14s8.71-16.84,8.93-15.68c.27,1.42-8.57,19.44-8.31,20.82.23,1.19,8.58-16.5,8.78-15.42.33,1.66-10.75,22-10.43,23.74.2,1,9.15-17.55,9.36-16.44.33,1.71-10.75,22.38-10.44,24,.21,1.12,8.43-16.36,8.66-15.2s-6.95,16-6.73,17.12,5.71-11.5,5.92-10.4S5.3,179.73,5.55,181.07c.22,1.16,7.45-14.7,7.68-13.49.29,1.51-8.84,18.87-8.55,20.35.21,1.07,5.43-11.09,5.66-9.93S3,194.68,3.22,196c.2,1.07,7.71-15.18,8-13.95.19,1-6.66,15.53-6.45,16.64.18.94,5.16-10.36,5.34-9.38s-4.42,12.18-4.27,13,3.72-7.67,3.88-6.81S3.86,209.79,4,210.74c.13.73,7.09-13.51,7.23-12.72s-4.65,12.51-4.48,13.4,2.59-5.63,2.75-4.82S4.63,220,4.8,220.86s6.54-12.46,6.68-11.73c.2,1.07-6.56,16-6.37,17s6.58-12.54,6.72-11.78c.19,1-5.45,14.49-5.27,15.42.15.76,5.41-10.56,5.56-9.75S8,231.44,8.17,232.19s5.7-11.14,5.88-10.29-6,14.71-5.76,15.79c.15.78,4.1-8.25,4.25-7.46.1.53-2.89,10.09-2.78,10.69s4.76-9.49,4.93-8.64-5.19,13.54-5,14.52,5.69-11,5.84-10.25c.21,1.08-6.21,15.73-6,16.7.15.78,3.61-7.42,3.77-6.62.12.64-3.62,10.69-3.48,11.39s4.24-8.47,4.39-7.7S9.78,262.93,10,263.82s6.7-12.86,6.86-12-6.2,15.22-6,16.31,5.26-10.39,5.43-9.52c.24,1.29-8.52,18.47-8.26,19.84.22,1.13,9.49-18.23,9.72-17,.28,1.48-8.81,19.17-8.51,20.73.2,1.1,5.79-11.55,6-10.52.23,1.19-7.8,17.37-7.56,18.66s9-17.32,9.17-16.2c.33,1.67-11.14,23.65-10.83,25.27.23,1.21,7.61-14.83,7.82-13.73S7,301.89,7.15,302.94,13.8,289.77,14,290.89c.26,1.37-9,19.5-8.66,21.1.23,1.16,7.11-14.1,7.34-12.88C13,300.54,4.76,317,5,318.34c.21,1.16,6.11-12.2,6.32-11.1.25,1.32-7.65,17.91-7.42,19.09s8.42-16.12,8.61-15.12c.26,1.36-7.64,17-7.41,18.22.16.81,4.69-9.34,4.85-8.5s-5.5,13.93-5.33,14.88c.14.72,5.41-10.52,5.55-9.74S6.53,337.29,6.65,338s3.1-6.45,3.25-5.69-4.51,13.05-4.36,13.84,6-11.68,6.16-10.81-5.17,14-5,14.87,5.31-10.31,5.45-9.56-4.5,12.67-4.35,13.47,5.72-11,5.86-10.28c.19,1-5.79,14.35-5.59,15.29.15.78,4.22-8.47,4.37-7.67s-4.41,12.21-4.28,13,5.92-11.51,6.07-10.65-5.75,14.69-5.56,15.7c.15.77,5-9.82,5.15-9s-4.75,12.87-4.59,13.7,4.3-8.59,4.45-7.82c.1.54-2.94,9.93-2.82,10.52.14.75,3.35-6.92,3.5-6.15S11,381,11.15,381.63c.17.86,3-6.34,3.18-5.58s-4.45,12.24-4.28,13.1,6.69-12.78,6.84-12c.24,1.26-7.64,18-7.4,19.25.2,1,6.86-13.56,7.07-12.43.27,1.39-9,19.78-8.73,21.16s9.21-17.57,9.4-16.51c.26,1.33-7.77,17.53-7.52,18.84.21,1.09,4.81-10.1,5-8.86.19,1-6.66,15.47-6.43,16.68s7.16-14.11,7.37-13c.25,1.34-8.13,18-7.86,19.48.23,1.22,6.55-13.05,6.77-11.89.31,1.6-9.48,20-9.16,21.66.2,1,7.05-13.85,7.26-12.76S5,436.35,5.24,437.65s8.64-16.65,8.85-15.53-8.47,18.95-8.22,20.32c.22,1.18,7.56-14.84,7.78-13.67.28,1.45-8.37,18.42-8.13,19.72.21,1.12,6.89-13.42,7.08-12.43s-6.46,15.74-6.25,16.8c.16.83,5.07-10.08,5.23-9.19.22,1.15-6.66,16.26-6.43,17.45.14.76,6.74-12.86,6.89-12.09s-4.7,12.74-4.56,13.54,4.86-9.6,5-8.8c.25,1.15-6.28,15.13-6.08,16.23.14.73,6.69-12.84,6.84-12,.24,1.22-6.48,16-6.24,17.23.14.74,5.73-11.13,5.88-10.33S7.74,478,7.93,479c.15.78,4-8.07,4.14-7.27S8.46,482.87,8.6,483.58s5.92-11.46,6.06-10.64S9.8,486.64,10,487.52s4.74-9.27,4.86-8.52S9.7,492,9.89,493c.14.75,3.76-7.65,3.91-6.87s-4.55,13.16-4.38,14,4.56-9.15,4.72-8.3-4,12.33-3.84,13.08,5.52-10.78,5.67-10-4.77,13.58-4.6,14.43,4.86-9.67,5-8.82c.22,1.17-6.15,15.49-5.92,16.62.15.8,5.83-11.38,6-10.52.11.61-2.9,10.27-2.78,10.9.15.79,3-6.1,3.1-5.44"/></svg>