<svg id="Warstwa_1" data-name="Warstwa 1" xmlns="http://www.w3.org/2000/svg" viewBox="0 0 62 525"><defs><style>.cls-1{fill:none;stroke:#ee6950;stroke-linecap:round;stroke-linejoin:round;stroke-width:3px;}</style></defs><title>leftBorderSketch</title><path class="cls-1" d="M25.78,7.92c0,.06,3.72-2.23,3.76-2.17.27.47-7.23,8.74-6.92,9.27s13.71-8.59,14-8.08S27,17.58,27.36,18.17c.51.89,18.39-11.84,18.92-10.92.79,1.37-23.61,17.57-22.84,18.91.65,1.12,19.81-12.87,20.43-11.79C44.7,15.8,17.66,33.92,18.4,35.22S39.59,21.61,40.18,22.64c.85,1.47-25.09,17.9-24.28,19.3.71,1.23,25.65-16.46,26.36-15.22.9,1.56-31,21.47-30,23.11.62,1.08,29.44-18.5,30.09-17.37,1.07,1.84-33.15,22.81-32,24.72C10.94,58.31,35,41.53,35.62,42.56S14,59.52,14.69,60.8c.65,1.11,22.2-14.36,22.86-13.2,1,1.76-31.89,22.13-30.87,23.91.68,1.17,28.74-18.15,29.41-17,1,1.78-30.59,21.67-29.64,23.31.54.94,20.21-13,20.79-12S8.32,81.27,9,82.39c.44.75,14-9.07,14.41-8.32.33.56-7,9.49-6.68,10.05.46.8,15-9.67,15.44-8.91S16.07,89.05,16.64,90,26.73,83.22,27.16,84,14.88,95.26,15.31,96s19-12,19.47-11.24c.51.89-17.38,14.23-16.84,15.15s18.11-11.6,18.6-10.74c.59,1-16.35,14.08-15.85,14.93S34.81,95,35.23,95.72c.67,1.15-19.39,15.06-18.71,16.23.46.81,23.57-14.69,24-13.88.71,1.23-20.73,16.13-20,17.32.49.85,17-10.9,17.44-10.08.38.66-12,11.48-11.6,12.2s8.89-6.28,9.38-5.42c.34.58-9.53,10.88-9.13,11.58s13.94-9.06,14.37-8.3c.58,1-18.84,14.62-18.19,15.75.46.79,18.41-11.74,18.89-10.91.39.67-10.59,11.42-10.19,12.11s9.69-6.68,10.16-5.87c.61,1.06-17.31,14.77-16.78,15.69s20-13,20.62-11.91c.79,1.38-26.52,18.85-25.77,20.14s26.48-16.84,27.15-15.68c.82,1.42-26.06,19.44-25.27,20.82.7,1.19,26.08-16.5,26.7-15.42,1,1.66-32.7,22-31.72,23.74.59,1,27.82-17.55,28.47-16.44,1,1.71-32.71,22.38-31.75,24,.64,1.12,25.64-16.36,26.31-15.2s-21.11,16-20.46,17.12,17.38-11.5,18-10.4-22.76,16.82-22,18.16c.67,1.16,22.66-14.7,23.36-13.49.87,1.51-26.88,18.87-26,20.35C13.13,189,29,176.84,29.71,178S7.3,194.68,8.05,196c.62,1.07,23.46-15.18,24.17-13.95.6,1-20.24,15.53-19.6,16.64.54.94,15.68-10.36,16.25-9.38s-13.46,12.18-13,13,11.31-7.67,11.8-6.81S10,209.79,10.51,210.74c.42.73,21.57-13.51,22-12.72s-14.13,12.51-13.62,13.4,7.88-5.63,8.35-4.82S12.35,220,12.85,220.86s19.89-12.46,20.32-11.73c.62,1.07-19.93,16-19.35,17s20-12.54,20.41-11.78c.58,1-16.57,14.49-16,15.42.43.76,16.43-10.56,16.89-9.75s-12.46,11.42-12,12.17S40.46,221.05,41,221.9s-18.13,14.71-17.52,15.79c.45.78,12.47-8.25,12.92-7.46.31.53-8.8,10.09-8.45,10.69s14.46-9.49,15-8.64S27.17,245.82,27.74,246.8s17.3-11,17.76-10.25c.62,1.08-18.88,15.73-18.32,16.7.45.78,11-7.42,11.47-6.62.36.64-11,10.69-10.57,11.39s12.89-8.47,13.34-7.7S28,262.93,28.53,263.82s20.38-12.86,20.85-12c.56,1-18.86,15.22-18.23,16.31s16-10.39,16.49-9.52c.75,1.29-25.89,18.47-25.1,19.84.65,1.13,28.86-18.23,29.54-17,.86,1.48-26.79,19.17-25.88,20.73.63,1.1,17.63-11.55,18.23-10.52.69,1.19-23.72,17.37-23,18.66S48.7,273,49.34,274.12c1,1.67-33.89,23.65-32.95,25.27.69,1.21,23.14-14.83,23.77-13.73S19.39,301.89,20,302.94s20.23-13.17,20.87-12.05c.8,1.37-27.25,19.5-26.32,21.1.67,1.16,21.61-14.1,22.32-12.88.82,1.43-24.12,17.86-23.32,19.23.66,1.16,18.58-12.2,19.22-11.1.76,1.32-23.24,17.91-22.56,19.09s25.6-16.12,26.18-15.12c.79,1.36-23.23,17-22.51,18.22.48.81,14.25-9.34,14.73-8.5s-16.73,13.93-16.19,14.88c.42.72,16.43-10.52,16.88-9.74S18.11,337.29,18.5,338c.48.84,9.42-6.45,9.86-5.69s-13.69,13.05-13.24,13.84,18.22-11.68,18.72-10.81-15.73,13.95-15.2,14.87,16.14-10.31,16.57-9.56S21.52,353.32,22,354.12s17.39-11,17.8-10.28c.58,1-17.6,14.35-17,15.29.45.78,12.83-8.47,13.29-7.67s-13.39,12.21-13,13,18-11.51,18.45-10.65S24.05,368.5,24.64,369.51c.44.77,15.2-9.82,15.65-9s-14.43,12.87-13.95,13.7,13.08-8.59,13.53-7.82c.31.54-8.93,9.93-8.59,10.52.43.75,10.2-6.92,10.65-6.15S31.81,381,32.18,381.63c.5.86,9.22-6.34,9.66-5.58s-13.52,12.24-13,13.1,20.34-12.78,20.79-12c.73,1.26-23.24,18-22.51,19.25.6,1,20.87-13.56,21.52-12.43.81,1.39-27.35,19.78-26.56,21.16s28-17.57,28.59-16.51c.77,1.33-23.63,17.53-22.88,18.84.64,1.09,14.63-10.1,15.35-8.86.6,1-20.24,15.47-19.54,16.68S45.37,401.17,46,402.32c.78,1.34-24.72,18-23.89,19.48.71,1.22,19.93-13.05,20.6-11.89.92,1.6-28.84,20-27.88,21.66.61,1,21.46-13.85,22.09-12.76s-23.49,17.54-22.73,18.84S40.48,421,41.11,422.12s-25.75,18.95-25,20.32c.69,1.18,23-14.84,23.67-13.67.84,1.45-25.47,18.42-24.72,19.72.64,1.12,20.95-13.42,21.52-12.43s-19.65,15.74-19,16.8c.48.83,15.4-10.08,15.91-9.19.67,1.15-20.26,16.26-19.57,17.45.44.76,20.5-12.86,20.95-12.09S20.58,461.77,21,462.57s14.78-9.6,15.24-8.8C37,454.92,17.15,468.9,17.77,470c.42.73,20.33-12.84,20.8-12,.71,1.22-19.72,16-19,17.23.43.74,17.45-11.13,17.91-10.33S21.81,478,22.38,479c.45.78,12.12-8.07,12.58-7.27S24,482.87,24.43,483.58s18-11.46,18.43-10.64-14.79,13.7-14.28,14.58S43,478.25,43.38,479s-15.62,13-15.05,14c.43.75,11.45-7.65,11.9-6.87s-13.83,13.16-13.33,14,13.89-9.15,14.37-8.3-12.11,12.33-11.68,13.08,16.78-10.78,17.25-10-14.51,13.58-14,14.43,14.79-9.67,15.28-8.82c.67,1.17-18.71,15.49-18,16.62.45.8,17.73-11.38,18.22-10.52.36.61-8.8,10.27-8.44,10.9.46.79,9.05-6.1,9.43-5.44"/></svg>