<svg id="Warstwa_1" data-name="Warstwa 1" xmlns="http://www.w3.org/2000/svg" viewBox="0 0 62 525"><defs><style>.cls-1{fill:none;stroke:#ee6950;stroke-linecap:round;stroke-linejoin:round;stroke-width:3px;}</style></defs><title>rightBorderSketch</title><path class="cls-1" d="M6,13.33c.09.15,5.41-3.32,5.5-3.17.23.4-5.5,7.85-5.24,8.3.47.82,19.89-12.61,20.38-11.76s-12.23,12-11.83,12.71S30.69,9.21,31.15,10c.59,1-17.1,14.24-16.51,15.25.45.78,13.14-8.58,13.57-7.83S13.12,31.2,13.59,32s14.5-9.33,14.92-8.62c.53.92-14.51,12.49-14,13.37S33.51,24.64,34,25.5c.61,1.06-20.07,15.87-19.42,17,.43.76,22.77-14.19,23.23-13.41.74,1.28-21.92,17.11-21.15,18.44.45.78,18-11.38,18.47-10.66s-10.49,11.25-10.07,12,15.53-10,16-9.24C41.77,40.79,20.3,56,21,57.25c.47.82,22.08-13.83,22.55-13,.8,1.39-22.94,17.75-22.21,19,.45.78,16.9-10.86,17.38-10s-15,13.45-14.51,14.37c.44.76,14.09-9.13,14.52-8.38.32.55-6.7,9.34-6.39,9.88.46.8,14.92-9.61,15.36-8.86.59,1-18.79,15.24-18.14,16.37s12.76-8.54,13.26-7.66S24.5,83.33,25.1,84.37,49.49,69,50.06,70c.73,1.28-26.36,18.87-25.59,20.2.65,1.14,23.51-15.11,24.18-14,.86,1.5-25.62,18.9-24.9,20.15s20.27-13,20.86-12c1,1.67-29.27,20.08-28.29,21.77C17,107.2,46,87.41,46.68,88.55c1,1.74-30.78,21.27-29.81,23,.69,1.19,23.1-14.87,23.76-13.71s-21.9,16.56-21.22,17.74c.6,1,15-10.27,15.7-9.07.6,1-19.94,16.19-19.23,17.41s20.08-13,20.69-11.94c.84,1.45-28.6,19.57-27.66,21.21.64,1.11,24.54-15.71,25.21-14.56s-18.91,15.7-18.29,16.79S29.76,126,30.35,127s-17.79,15-17.25,16c.45.78,17-11,17.49-10.1.61,1.07-19.81,15.37-19.23,16.37.49.85,19.83-12.52,20.29-11.72S16.78,151.16,17.28,152s19.39-12.21,19.83-11.45c.67,1.16-22,16.55-21.35,17.74.42.72,21.16-13.25,21.61-12.47.69,1.19-21.86,16.78-21.2,17.93.45.78,19-12.05,19.46-11.23.36.63-10.54,10.52-10.16,11.17s10.7-7.21,11.15-6.44-12,11.37-11.6,12.15,16-10.37,16.51-9.53-16.27,13.45-15.71,14.4c.43.75,9.86-6.79,10.33-6,.39.67-11.86,11.27-11.41,12s17-10.93,17.45-10.08-13.12,11.88-12.68,12.65,12.32-8.18,12.78-7.38S32.62,185.78,33,186.4s11.17-7.58,11.66-6.73S27.36,193.79,27.9,194.72c.42.72,21.48-13.46,21.94-12.67s-15.24,13.07-14.7,14,9-6.36,9.51-5.49-19.78,15.9-19.14,17,24.58-15.48,25.13-14.52c.85,1.47-28.49,20.48-27.69,21.86.68,1.18,25.7-16.23,26.3-15.19.87,1.5-26.43,19.59-25.63,21,.6,1.05,22.55-14.51,23.2-13.39.75,1.3-22.18,16.4-21.47,17.62.58,1,23.5-15.16,24.19-14,.82,1.42-28.14,19.81-27.23,21.39.63,1.09,18.58-12.19,19.22-11.1S22.65,236.51,23.28,237.6s20.57-13.47,21.26-12.28S18.78,244,19.65,245.49c.67,1.16,23.42-15,24.06-13.89.9,1.57-29.12,21-28.3,22.46.63,1.09,17.12-11.38,17.77-10.26s-20.74,15.68-20,16.87,19-12.43,19.64-11.34-22.13,17-21.36,18.38c.61,1.06,25.08-15.89,25.69-14.83S16.26,269.1,17,270.29c.5.87,14.47-9.42,14.93-8.62.62,1.06-20.73,15.82-20.08,16.94.48.82,23.08-14.45,23.57-13.6s-16.76,14.07-16.16,15.12c.44.76,11-7.29,11.37-6.57S17.52,285.47,18,286.25s20.57-12.92,21-12.14c.67,1.17-22.7,17.83-22,19,.49.85,16.47-10.53,16.91-9.76.34.58-10,10.62-9.64,11.21s13.56-8.87,14-8.09S22,300.33,22.6,301.36c.46.8,15-9.77,15.45-8.92s-13.2,12.28-12.72,13.11,11.91-7.91,12.36-7.14S24.17,311.28,24.6,312s20.21-12.66,20.64-11.92c.61,1.06-17.38,14-16.82,14.94.41.71,12-7.9,12.42-7.17s-13.92,12.48-13.45,13.3,16.33-10.45,16.77-9.68S33,322.7,33.38,323.38c.49.84,9.49-6.5,9.94-5.74.57,1-17.59,15.07-17,16s22-14.14,22.62-13.05-23.51,17.94-22.76,19.24,21.81-14,22.4-12.94c.68,1.19-23.31,17.68-22.59,18.92s23.53-14.92,24.11-13.92c.85,1.47-27.43,19.43-26.63,20.82.63,1.09,19-12.43,19.6-11.31.75,1.31-23.24,17.31-22.56,18.49s24.07-15.49,24.76-14.29c.8,1.39-27.66,20-26.79,21.47.62,1.08,21.33-13.77,22-12.68.8,1.39-24.4,18-23.65,19.3S36,361.17,36.6,362.26s-18.86,15-18.25,16.09,16.35-10.88,17-9.8-19.88,15.27-19.24,16.38,15.37-10.29,16-9.22S12.88,390.83,13.54,392c.57,1,22.44-14.11,22.94-13.25.68,1.17-21.29,17-20.61,18.15.45.79,15.91-10.32,16.4-9.47s-18.22,15-17.66,16,21.29-13.28,21.72-12.54-12.82,12-12.36,12.77,8-5.76,8.47-4.9c.33.57-9.55,10-9.17,10.7s15.12-9.79,15.58-9S25,413,25.51,413.86s13.27-8.73,13.73-7.93c.61,1.06-18,14.5-17.4,15.61.42.73,14.78-9.55,15.22-8.78s-12.62,12-12.17,12.73,19.6-12.34,20-11.57-14.76,13.29-14.27,14.15,16.34-10.52,16.81-9.7c.58,1-16.6,13.83-16.09,14.72s16-10.22,16.41-9.47-14.45,13.05-14,13.87,14.14-9.26,14.61-8.44c.62,1.07-18.4,15.32-17.77,16.41.44.76,20.42-12.8,20.85-12s-14.79,13-14.32,13.83,15.35-10,15.83-9.14c.78,1.36-23.15,17.18-22.41,18.45.52.91,24.19-15.35,24.78-14.31,1,1.64-27.7,20.08-26.76,21.7.59,1,23.2-14.86,23.84-13.76s-25.13,18-24.27,19.45c.63,1.1,18.23-12,18.88-10.9S26.1,475,26.79,476.23,50.85,460.81,51.51,462c.81,1.39-25.17,19-24.38,20.41.64,1.11,20.53-13.2,21.11-12.19.72,1.25-25.41,18-24.55,19.48.6,1,17.58-11.61,18.21-10.52.74,1.28-24.24,18.5-23.44,19.88.67,1.18,20-13.12,20.68-11.94S16.63,504.77,17.34,506s22.9-14.76,23.56-13.61c.86,1.48-24.91,19-24.14,20.27.61,1.06,20.91-13.65,21.59-12.46.79,1.37-22.6,17.48-21.83,18.8.46.8,17.79-11.42,18.29-10.56.25.43-4.68,8.15-4.42,8.59s1.61-1.34,1.79-1"/></svg>